<?xml version="1.0" ?><svg fill="none" height="24" viewBox="0 0 24 24" width="24" xmlns="http://www.w3.org/2000/svg"><path d="M16.5679 5.22907C16.0887 5.07039 15.5847 5.00013 15.0799 5.00013C13.9679 4.99223 12.8887 5.35539 11.9999 6.02564C11.1558 5.38697 10.0806 5.03157 9.02396 5.00013C8.49985 5.00013 7.95441 5.04315 7.45678 5.21249C4.47201 6.17643 3.40802 9.37377 4.31201 12.1685C4.824 13.5966 5.6488 14.8921 6.72078 15.9571C8.27997 17.4413 9.98475 18.7519 11.8159 19.8729L12.0239 20L12.2239 19.8808C14.0487 18.7519 15.7439 17.4413 17.2887 15.965C18.3679 14.9 19.1919 13.5966 19.6958 12.1685C20.5846 9.37377 19.5207 6.17643 16.5679 5.22907Z" stroke="#6B7B94" stroke-linecap="round" stroke-linejoin="round"/><path d="M16.5311 9.75C16.067 8.9461 15.3025 8.35951 14.4059 8.11926" stroke="#6B7B94" stroke-linecap="round" stroke-linejoin="round"/></svg>