<svg width="60" height="60" xmlns="http://www.w3.org/2000/svg" fill="none">
 <g>
  <title>Layer 1</title>
  <path stroke="white" d="m39.96718,35.6749l0,3.91523c0.00145,0.3635 -0.07022,0.72323 -0.21044,1.05629c-0.14021,0.33305 -0.34577,0.63196 -0.6036,0.87766c-0.25784,0.2457 -0.56231,0.43276 -0.89373,0.54921c-0.33149,0.11644 -0.68276,0.15971 -1.03127,0.127c-3.86625,-0.43638 -7.58,-1.80861 -10.84295,-4.00658c-3.0358,-2.00374 -5.60958,-4.67721 -7.5386,-7.83047c-2.1234,-3.40469 -3.44483,-7.28103 -3.85724,-11.31504c-0.03139,-0.3609 0.00989,-0.72464 0.12125,-1.06804c0.11135,-0.34342 0.29032,-0.65898 0.52552,-0.92662c0.2352,-0.26763 0.52147,-0.48146 0.84059,-0.62787c0.31911,-0.14641 0.66409,-0.2222 1.01294,-0.22255l3.76927,0c0.60979,-0.00623 1.20087,0.21806 1.66327,0.63105c0.46232,0.413 0.76427,0.98653 0.84961,1.61369c0.15907,1.25296 0.45415,2.48318 0.87953,3.66729c0.16899,0.46713 0.20563,0.97474 0.10541,1.46282c-0.10022,0.48801 -0.33302,0.936 -0.67085,1.29091l-1.59564,1.65742c1.7886,3.26729 4.39307,5.97264 7.53855,7.83047l1.59572,-1.65742c0.34157,-0.35091 0.7729,-0.5927 1.2427,-0.69686c0.46988,-0.10408 0.95861,-0.06602 1.40833,0.10951c1.13996,0.44188 2.32434,0.74833 3.53056,0.91361c0.61032,0.08939 1.16774,0.40872 1.56618,0.89718c0.39851,0.48846 0.61017,1.11206 0.5949,1.75209z" stroke-linecap="round" stroke-linejoin="round" id="svg_1"/>
  <ellipse ry="22.12455" rx="22.49955" id="svg_2" cy="28.50003" cx="27.50005" stroke="white"/>
 </g>

</svg>